<svg width="211" height="48" viewBox="0 0 211 48" fill="none" xmlns="http://www.w3.org/2000/svg">
<rect x="102" width="109" height="48" rx="5" fill="white"/>
<path d="M1.07955 16.2727V9.90909H26.3636V16.2727H17.6136V39H9.82955V16.2727H1.07955ZM36.7401 39.3977C34.4105 39.3977 32.4029 38.9527 30.7173 38.0625C29.0412 37.1629 27.7486 35.875 26.8395 34.1989C25.9399 32.5133 25.4901 30.4962 25.4901 28.1477C25.4901 25.8939 25.9446 23.9242 26.8537 22.2386C27.7628 20.553 29.0459 19.2415 30.7031 18.304C32.3603 17.3665 34.3158 16.8977 36.5696 16.8977C38.2173 16.8977 39.7088 17.1534 41.044 17.6648C42.3793 18.1761 43.5204 18.9195 44.4673 19.8949C45.4143 20.8608 46.1435 22.035 46.6548 23.4176C47.1662 24.8002 47.4219 26.358 47.4219 28.0909V29.9091H27.9332V25.5909H40.206C40.1965 24.9659 40.0355 24.4167 39.723 23.9432C39.42 23.4602 39.008 23.0862 38.4872 22.821C37.9759 22.5464 37.3935 22.4091 36.7401 22.4091C36.1056 22.4091 35.5232 22.5464 34.9929 22.821C34.4626 23.0862 34.0365 23.4555 33.7145 23.929C33.402 24.4025 33.2363 24.9564 33.2173 25.5909V30.25C33.2173 30.9508 33.3641 31.5758 33.6577 32.125C33.9512 32.6742 34.3726 33.1051 34.9219 33.4176C35.4711 33.7301 36.134 33.8864 36.9105 33.8864C37.4503 33.8864 37.9427 33.8106 38.3878 33.6591C38.8423 33.5076 39.2306 33.2898 39.5526 33.0057C39.8745 32.7121 40.1113 32.3617 40.2628 31.9545H47.4219C47.1757 33.4697 46.5933 34.786 45.6747 35.9034C44.7562 37.0114 43.5393 37.8731 42.0241 38.4886C40.5185 39.0947 38.7571 39.3977 36.7401 39.3977ZM61.1328 39.3977C58.7654 39.3977 56.7389 38.929 55.0533 37.9915C53.3677 37.0445 52.075 35.7282 51.1754 34.0426C50.2758 32.3475 49.826 30.3826 49.826 28.1477C49.826 25.9129 50.2758 23.9527 51.1754 22.267C52.075 20.572 53.3677 19.2557 55.0533 18.3182C56.7389 17.3712 58.7654 16.8977 61.1328 16.8977C63.273 16.8977 65.1243 17.286 66.6868 18.0625C68.2588 18.8295 69.4756 19.9186 70.3374 21.3295C71.1991 22.7311 71.6347 24.3788 71.6442 26.2727H64.3714C64.2673 25.1269 63.9358 24.2557 63.3771 23.6591C62.8279 23.053 62.1177 22.75 61.2464 22.75C60.5646 22.75 59.968 22.9489 59.4567 23.3466C58.9453 23.7348 58.5476 24.3267 58.2635 25.1222C57.9794 25.9081 57.8374 26.8977 57.8374 28.0909C57.8374 29.2841 57.9794 30.2784 58.2635 31.0739C58.5476 31.8598 58.9453 32.4517 59.4567 32.8494C59.968 33.2377 60.5646 33.4318 61.2464 33.4318C61.8241 33.4318 62.3355 33.2992 62.7805 33.0341C63.2256 32.7595 63.5855 32.3617 63.8601 31.8409C64.1442 31.3106 64.3146 30.6667 64.3714 29.9091H71.6442C71.6158 31.8314 71.1754 33.5076 70.3232 34.9375C69.4709 36.358 68.2635 37.4564 66.701 38.233C65.148 39.0095 63.2919 39.3977 61.1328 39.3977ZM82.7202 26.7273V39H74.8793V9.90909H82.4361V21.3295H82.6634C83.1558 19.9375 83.9749 18.8532 85.1207 18.0767C86.2666 17.2907 87.6444 16.8977 89.2543 16.8977C90.7978 16.8977 92.1378 17.2481 93.2741 17.9489C94.42 18.6496 95.3054 19.6155 95.9304 20.8466C96.5649 22.0777 96.8774 23.4886 96.8679 25.0795V39H89.027V26.7273C89.0365 25.6477 88.7666 24.8002 88.2173 24.1847C87.6776 23.5691 86.9058 23.2614 85.902 23.2614C85.2675 23.2614 84.7088 23.4034 84.2259 23.6875C83.7524 23.9621 83.383 24.3598 83.1179 24.8807C82.8622 25.392 82.7296 26.0076 82.7202 26.7273Z" fill="white"/>
<path d="M127.486 19.5114C127.363 19.0095 127.169 18.5691 126.903 18.1903C126.638 17.8021 126.307 17.4754 125.909 17.2102C125.521 16.9356 125.066 16.732 124.545 16.5994C124.034 16.4574 123.471 16.3864 122.855 16.3864C121.529 16.3864 120.398 16.7036 119.46 17.3381C118.532 17.9725 117.822 18.8864 117.33 20.0795C116.847 21.2727 116.605 22.7121 116.605 24.3977C116.605 26.1023 116.837 27.5606 117.301 28.7727C117.765 29.9848 118.456 30.9129 119.375 31.5568C120.294 32.2008 121.435 32.5227 122.798 32.5227C124.001 32.5227 125 32.3475 125.795 31.9972C126.6 31.6468 127.202 31.1496 127.599 30.5057C127.997 29.8617 128.196 29.1042 128.196 28.233L129.56 28.375H122.912V22.75H135.81V26.7841C135.81 29.4356 135.246 31.7036 134.119 33.5881C133.002 35.4631 131.458 36.9025 129.489 37.9062C127.528 38.9006 125.279 39.3977 122.741 39.3977C119.91 39.3977 117.424 38.7964 115.284 37.5938C113.144 36.3911 111.473 34.6771 110.27 32.4517C109.077 30.2263 108.48 27.5795 108.48 24.5114C108.48 22.1061 108.845 19.9754 109.574 18.1193C110.313 16.2633 111.335 14.696 112.642 13.4176C113.949 12.1297 115.459 11.1591 117.173 10.5057C118.887 9.8428 120.724 9.51136 122.685 9.51136C124.408 9.51136 126.009 9.75758 127.486 10.25C128.973 10.733 130.284 11.4242 131.42 12.3239C132.566 13.214 133.49 14.2699 134.19 15.4915C134.891 16.7131 135.317 18.053 135.469 19.5114H127.486ZM136.932 9.90909H145.739L151.42 21.7273H151.648L157.33 9.90909H166.136L155.455 29.8523V39H147.614V29.8523L136.932 9.90909ZM168.711 9.90909H178.54L185.302 26.3864H185.643L192.404 9.90909H202.234V39H194.506V22.1818H194.279L187.802 38.7727H183.143L176.665 22.0682H176.438V39H168.711V9.90909Z" fill="#FF0509"/>
</svg>
